<?xml version="1.0" encoding="UTF-8" standalone="no"?>
<!DOCTYPE svg PUBLIC "-//W3C//DTD SVG 1.1//EN"
 "http://www.w3.org/Graphics/SVG/1.1/DTD/svg11.dtd">
<!-- Generated by graphviz version 2.40.1 (20161225.0304)
 -->
<!-- Title: AHS Pages: 1 -->
<svg width="415pt" height="404pt"
 viewBox="0.00 0.00 415.00 404.00" xmlns="http://www.w3.org/2000/svg" xmlns:xlink="http://www.w3.org/1999/xlink">
<g id="graph0" class="graph" transform="scale(1 1) rotate(0) translate(4 400)">
<title>AHS</title>
<polygon fill="#ffffff" stroke="transparent" points="-4,4 -4,-400 411,-400 411,4 -4,4"/>
<!-- Signer -->
<g id="node1" class="node">
<title>Signer</title>
<polygon fill="none" stroke="#000000" points="343.5,-84 118.5,-84 118.5,0 343.5,0 343.5,-84"/>
<polygon fill="none" stroke="#000000" points="130,-55 130,-77 333,-77 333,-55 130,-55"/>
<text text-anchor="start" x="213.2258" y="-61.4" font-family="Times,serif" font-size="14.00" fill="#000000">Signer</text>
<polygon fill="none" stroke="#000000" points="130,-31 130,-53 187,-53 187,-31 130,-31"/>
<text text-anchor="start" x="153.0547" y="-37.4" font-family="Times,serif" font-size="14.00" fill="#000000">id</text>
<polygon fill="none" stroke="#000000" points="189,-31 189,-53 333,-53 333,-31 189,-31"/>
<text text-anchor="start" x="212.7896" y="-37.4" font-family="Times,serif" font-size="14.00" fill="#000000">unique text name</text>
<polygon fill="none" stroke="#000000" points="130,-7 130,-29 333,-29 333,-7 130,-7"/>
<text text-anchor="start" x="133.9305" y="-13.4" font-family="Times,serif" font-size="14.00" fill="#000000">Per signer type secret specification</text>
<polygon fill="none" stroke="#000000" points="126.5,-4 126.5,-80 335.5,-80 335.5,-4 126.5,-4"/>
</g>
<!-- App_Authorization -->
<g id="node2" class="node">
<title>App_Authorization</title>
<polygon fill="none" stroke="#000000" points="407,-228 147,-228 147,-120 407,-120 407,-228"/>
<polygon fill="none" stroke="#000000" points="158,-199 158,-221 396,-221 396,-199 158,-199"/>
<text text-anchor="start" x="224.3173" y="-205.4" font-family="Times,serif" font-size="14.00" fill="#000000">App Authorization</text>
<polygon fill="none" stroke="#000000" points="158,-175 158,-197 203,-197 203,-175 158,-175"/>
<text text-anchor="start" x="175.0547" y="-181.4" font-family="Times,serif" font-size="14.00" fill="#000000">id</text>
<polygon fill="none" stroke="#000000" points="205,-175 205,-197 396,-197 396,-175 205,-175"/>
<text text-anchor="start" x="207.5778" y="-181.4" font-family="Times,serif" font-size="14.00" fill="#000000">hawk &#39;key id&#39; text, global unique</text>
<polygon fill="none" stroke="#000000" points="158,-151 158,-173 203,-173 203,-151 158,-151"/>
<text text-anchor="start" x="170.3927" y="-157.4" font-family="Times,serif" font-size="14.00" fill="#000000">key</text>
<polygon fill="none" stroke="#000000" points="205,-151 205,-173 396,-173 396,-151 205,-151"/>
<text text-anchor="start" x="250.5564" y="-157.4" font-family="Times,serif" font-size="14.00" fill="#000000">hawk &#39;key&#39;/secret</text>
<polygon fill="none" stroke="#000000" points="158,-127 158,-149 203,-149 203,-127 158,-127"/>
<text text-anchor="start" x="160.6725" y="-133.4" font-family="Times,serif" font-size="14.00" fill="#000000">signers</text>
<polygon fill="none" stroke="#000000" points="205,-127 205,-149 396,-149 396,-127 205,-127"/>
<text text-anchor="start" x="251.325" y="-133.4" font-family="Times,serif" font-size="14.00" fill="#000000">array of Signer.id</text>
<polygon fill="none" stroke="#000000" points="155,-124 155,-224 399,-224 399,-124 155,-124"/>
</g>
<!-- App_Authorization&#45;&gt;Signer -->
<g id="edge1" class="edge">
<title>App_Authorization:w&#45;&gt;Signer:1</title>
<path fill="none" stroke="#000000" d="M158,-138C117.375,-138 90.4895,-57.791 120.1112,-44.0051"/>
<polygon fill="#000000" stroke="#000000" points="120.895,-47.4175 130,-42 119.5039,-40.5571 120.895,-47.4175"/>
</g>
<!-- Edge_Authorization -->
<g id="node3" class="node">
<title>Edge_Authorization</title>
<polygon fill="none" stroke="#000000" points="318,-396 0,-396 0,-264 318,-264 318,-396"/>
<polygon fill="none" stroke="#000000" points="11,-367 11,-389 244,-389 244,-367 11,-367"/>
<text text-anchor="start" x="72.487" y="-373.4" font-family="Times,serif" font-size="14.00" fill="#000000">Edge Authorization</text>
<polygon fill="none" stroke="#000000" points="11,-343 11,-365 51,-365 51,-343 11,-343"/>
<text text-anchor="start" x="15.4474" y="-349.4" font-family="Times,serif" font-size="14.00" fill="#000000">token</text>
<polygon fill="none" stroke="#000000" points="53,-343 53,-365 244,-365 244,-343 53,-343"/>
<text text-anchor="start" x="79.2924" y="-349.4" font-family="Times,serif" font-size="14.00" fill="#000000">API token used by client</text>
<polygon fill="none" stroke="#000000" points="11,-319 11,-341 51,-341 51,-319 11,-319"/>
<text text-anchor="start" x="19.3401" y="-325.4" font-family="Times,serif" font-size="14.00" fill="#000000">user</text>
<polygon fill="none" stroke="#000000" points="53,-319 53,-341 244,-341 244,-319 53,-319"/>
<text text-anchor="start" x="55.5778" y="-325.4" font-family="Times,serif" font-size="14.00" fill="#000000">hawk &#39;key id&#39; text, global unique</text>
<polygon fill="none" stroke="#000000" points="246,-271 246,-341 307,-341 307,-271 246,-271"/>
<text text-anchor="start" x="248.5098" y="-310.2" font-family="Times,serif" font-size="14.00" fill="#000000">autograph</text>
<text text-anchor="start" x="264.4474" y="-293.4" font-family="Times,serif" font-size="14.00" fill="#000000">auth</text>
<polygon fill="none" stroke="#000000" points="11,-295 11,-317 51,-317 51,-295 11,-295"/>
<text text-anchor="start" x="20.8927" y="-301.4" font-family="Times,serif" font-size="14.00" fill="#000000">key</text>
<polygon fill="none" stroke="#000000" points="53,-295 53,-317 244,-317 244,-295 53,-295"/>
<text text-anchor="start" x="98.7517" y="-301.4" font-family="Times,serif" font-size="14.00" fill="#000000">hawk &#39;key&#39; secret</text>
<polygon fill="none" stroke="#000000" points="11,-271 11,-293 51,-293 51,-271 11,-271"/>
<text text-anchor="start" x="13.8948" y="-277.4" font-family="Times,serif" font-size="14.00" fill="#000000">signer</text>
<polygon fill="none" stroke="#000000" points="53,-271 53,-293 244,-293 244,-271 53,-271"/>
<text text-anchor="start" x="105.3366" y="-277.4" font-family="Times,serif" font-size="14.00" fill="#000000">Fixed Signer.id</text>
<polygon fill="none" stroke="#000000" points="8,-268 8,-392 310,-392 310,-268 8,-268"/>
</g>
<!-- Edge_Authorization&#45;&gt;App_Authorization -->
<g id="edge2" class="edge">
<title>Edge_Authorization:5&#45;&gt;App_Authorization</title>
<path fill="none" stroke="#000000" d="M277,-271C277,-260.4715 277,-249.3003 277,-238.4281"/>
<polygon fill="#000000" stroke="#000000" points="280.5001,-238.1266 277,-228.1267 273.5001,-238.1267 280.5001,-238.1266"/>
</g>
</g>
</svg>
